<?xml version="1.0" standalone="no"?>
<!DOCTYPE svg PUBLIC "-//W3C//DTD SVG 20010904//EN"
 "http://www.w3.org/TR/2001/REC-SVG-20010904/DTD/svg10.dtd">
<svg version="1.0" xmlns="http://www.w3.org/2000/svg"
 width="225.000000pt" height="225.000000pt" viewBox="0 0 225.000000 225.000000"
 preserveAspectRatio="xMidYMid meet">
<metadata>
Created by potrace 1.10, written by Peter Selinger 2001-2011
</metadata>
<g transform="translate(0.000000,225.000000) scale(0.100000,-0.100000)"
fill="#000000" stroke="none">
<path d="M147 2102 l-148 -148 421 -414 421 -414 -418 -418 -418 -418 145
-145 145 -145 415 415 415 415 230 -228 c127 -125 315 -310 418 -412 l187
-185 143 143 142 142 -196 197 c-107 109 -293 297 -412 418 l-217 220 415 415
415 415 -145 145 -145 145 -418 -418 -419 -418 -414 421 -414 421 -148 -149z
m556 -310 c255 -254 409 -402 422 -402 12 0 167 148 422 403 222 221 408 402
413 402 13 0 240 -226 240 -239 0 -6 -183 -194 -406 -417 -386 -386 -405 -408
-394 -430 7 -12 189 -200 404 -416 215 -217 392 -398 394 -402 4 -10 -228
-241 -242 -241 -5 0 -191 181 -413 403 -222 221 -408 404 -414 406 -6 2 -197
-182 -423 -408 l-411 -411 -120 120 c-66 65 -120 124 -120 129 0 6 181 192
403 414 221 222 402 410 402 418 0 9 -182 197 -405 419 -223 223 -405 409
-405 415 0 13 233 246 243 242 4 -1 189 -183 410 -405z"/>
</g>
</svg>
