<?xml version="1.0" standalone="no"?>
<!DOCTYPE svg PUBLIC "-//W3C//DTD SVG 20010904//EN"
 "http://www.w3.org/TR/2001/REC-SVG-20010904/DTD/svg10.dtd">
<svg version="1.0" xmlns="http://www.w3.org/2000/svg"
 width="452.000000pt" height="452.000000pt" viewBox="0 0 452.000000 452.000000"
 preserveAspectRatio="xMidYMid meet">
<metadata>
Created by potrace 1.16, written by Peter Selinger 2001-2019
</metadata>
<g transform="translate(0.000000,452.000000) scale(0.100000,-0.100000)"
fill="#000000" stroke="none">
<path d="M595 4180 c-115 -37 -219 -142 -255 -259 -20 -62 -20 -96 -20 -1661
0 -1565 0 -1599 20 -1661 37 -119 140 -222 259 -259 62 -20 96 -20 1656 -20
1550 0 1595 1 1656 19 129 41 230 141 269 269 20 63 20 97 20 1657 0 1560 0
1594 -20 1656 -37 119 -140 222 -259 259 -62 20 -95 20 -1665 19 -1552 0
-1603 -1 -1661 -19z m3276 -165 c54 -19 115 -76 140 -130 18 -38 19 -101 19
-1625 l0 -1585 -24 -50 c-28 -60 -56 -87 -116 -114 -45 -20 -56 -21 -1630 -21
-1524 0 -1587 1 -1625 19 -22 10 -57 36 -77 57 -73 76 -68 -48 -68 1693 0
1383 2 1573 15 1612 19 55 87 125 141 144 33 12 297 14 1610 15 1391 0 1576
-2 1615 -15z"/>
<path d="M1476 3044 c-35 -36 -34 -77 3 -115 l29 -29 752 0 752 0 29 29 c37
38 38 79 3 115 l-27 26 -757 0 -757 0 -27 -26z"/>
<path d="M1475 2315 c-16 -15 -25 -36 -25 -55 0 -19 9 -40 25 -55 l24 -25 761
0 761 0 24 25 c16 15 25 36 25 55 0 19 -9 40 -25 55 l-24 25 -761 0 -761 0
-24 -25z"/>
<path d="M1479 1591 c-37 -38 -38 -79 -3 -115 l27 -26 757 0 757 0 27 26 c35
36 34 77 -3 115 l-29 29 -752 0 -752 0 -29 -29z"/>
</g>
</svg>
